<svg width="36" height="36" viewBox="0 0 36 36" fill="none" xmlns="http://www.w3.org/2000/svg">
<g clip-path="url(#clip0_8688_45616)">
<rect width="36" height="36" rx="4" fill="#0076B2"/>
<path d="M34.188 0.843886H3.49949C2.80319 0.8368 2.13251 1.10623 1.63463 1.59304C1.13674 2.07986 0.852311 2.74431 0.84375 3.44059V34.2528C0.853859 34.9481 1.13897 35.611 1.63669 36.0965C2.1344 36.5821 2.8042 36.8507 3.49949 36.8436H34.188C34.8844 36.8491 35.5546 36.5788 36.0522 36.0917C36.5498 35.6046 36.8344 34.9403 36.8438 34.244V3.43174C36.8313 2.7375 36.5454 2.07622 36.0481 1.59164C35.5508 1.10705 34.8823 0.838332 34.188 0.843886Z" fill="#0076B2"/>
<path d="M5.92307 13.7051H11.0165V30.0935H5.92307V13.7051ZM8.47119 5.54883C9.05539 5.54883 9.62645 5.7221 10.1122 6.04672C10.5979 6.37133 10.9764 6.83271 11.1998 7.37249C11.4232 7.91227 11.4815 8.50619 11.3674 9.07911C11.2532 9.65204 10.9717 10.1782 10.5584 10.5911C10.1451 11.004 9.61863 11.285 9.04559 11.3987C8.47256 11.5123 7.87869 11.4534 7.33913 11.2295C6.79957 11.0055 6.33855 10.6266 6.01439 10.1406C5.69024 9.65457 5.51751 9.08333 5.51807 8.49914C5.51881 7.71641 5.83027 6.96599 6.38401 6.41278C6.93775 5.85957 7.68846 5.54883 8.47119 5.54883ZM14.2115 13.7051H19.094V15.9551H19.1615C19.8421 14.667 21.5015 13.3085 23.9793 13.3085C29.1374 13.2973 30.0937 16.692 30.0937 21.0935V30.0935H25.0003V22.1201C25.0003 20.2216 24.9665 17.7776 22.3537 17.7776C19.7409 17.7776 19.2965 19.8476 19.2965 21.9963V30.0935H14.2115V13.7051Z" fill="white"/>
</g>
<defs>
<clipPath id="clip0_8688_45616">
<rect width="36" height="36" rx="4" fill="white"/>
</clipPath>
</defs>
</svg>
